<?xml version="1.0" encoding="utf-8"?>

<!DOCTYPE svg PUBLIC "-//W3C//DTD SVG 1.1//EN" "http://www.w3.org/Graphics/SVG/1.1/DTD/svg11.dtd">
<svg version="1.1" id="Layer_1" xmlns="http://www.w3.org/2000/svg" xmlns:xlink="http://www.w3.org/1999/xlink" x="0px" y="0px"
	 viewBox="0 0 1139.808 1635.174" enable-background="new 0 0 1139.808 1635.174" xml:space="preserve">
<g>
	<path fill="#FFFFCC" stroke="#FFFFCC" stroke-width="0.5" d="M473.698,166.347c22.046-38.985,52.035-81.78,98.558-91.668
		c26.017,11.266,46.766,31.772,63.625,54.142c0.081-4.539,0.324-13.698,0.486-18.317c19.371-15.967,42.552-27.314,66.462-34.69
		c46.928,20.101,79.754,67.434,94.586,115.092c8.186,71.73-0.729,144.27,4.458,216.244c3.404,24.964,14.103,48.063,21.56,71.973
		c-34.366-21.073-53.25-61.274-56.574-100.503c-13.13-65.732,2.026-134.382-19.209-198.899
		c-12.32-23.829-28.53-48.468-54.385-58.924c-13.617,4.377-47.253,7.214-40.525,26.179c-7.619,1.783-14.994,0.162-21.316-4.215
		l-6.97-8.267c-27.557-3.242-61.274-13.049-82.672,10.456c-44.821,60.95-30.637,139.569-24.234,209.516
		c7.051,42.227-15.967,82.51-43.93,112.336c5.836-61.031,12.887-123.521-0.892-183.985
		C464.458,244.561,464.053,204.198,473.698,166.347z"/>
	<path fill="#FFCC99" d="M517.855,297.466c-0.04,0.65-0.07,1.3-0.09,1.94C517.785,298.756,517.815,298.116,517.855,297.466z"/>
	<path fill="#FFCC99" d="M517.765,299.406c-0.03,0.78-0.05,1.55-0.07,2.32C517.705,300.946,517.725,300.176,517.765,299.406z"/>
	<path d="M1004.577,1418.26c-4.78-17.1-9.24-69.38-35.25-44.66C976.857,1391.109,978.567,1421.01,1004.577,1418.26z
		 M1026.547,1431.959c30.31-14.27-8.35-27.97-9.08-47.74c-3.97-11.11,1.87-30.15-13.62-32.91
		C997.937,1378.459,1003.937,1413.229,1026.547,1431.959z M1050.537,1391.189c-20.02-11.59-3.97-44.9-26.99-53.25
		c-0.73,15.32-1.7,30.8-0.16,46.12c8.18,17.75,23.66,30.47,37.52,43.76c6.41-5.75,12.73-11.51,19.05-17.26
		C1070.147,1404.159,1060.017,1398.159,1050.537,1391.189z M1040.887,1344.419c-4.7,36.47,28.29,51.87,54.55,66.06
		c14.43-22.62,32.1-55.76,1.46-74.49c0.24,14.27,0.81,28.53,1.62,42.8C1074.607,1376.999,1058.727,1357.629,1040.887,1344.419z
		 M826.756,1050.688c-11.43-52.19-20.18-104.96-33.47-156.671c-12.65,56.66-15,115.18-23.67,172.561
		c-13.78,82.92,26.42,160.561,41.98,240.071c35.5-9.32,66.79,15.97,102.21,12.24c24.88-0.32,35.5,25.86,48.71,42.23
		c0.57-21.16,8.67-39.07,28.61-48.31C937.637,1224.629,867.766,1146.089,826.756,1050.688z M731.926,611.397
		c12.08,57.95,24.64,115.9,41.25,172.721c3.81,12.16,7.54,26.42,20.67,31.53c18.32,85.91,31.77,173.121,57.55,257.411
		c40.85,81.54,101.8,150.681,145.57,230.431c3.64-1.54,10.86-4.62,14.5-6.08c-6.8,17.02-15.88,33.4-32.25,42.88
		c1.54,4.7,4.78,14.02,6.4,18.72c8.75-14.1,24.88-17.99,39.47-23.1c-9.89-22.21-2.27-46.04,16.45-60.79
		c-4.29,12-9.8,23.51-13.69,35.67c-2.03,16.53,12.96,25.61,23.5,35.17c3.89-10.45,7.78-20.99,11.51-31.53
		c2.35-0.48,7.05-1.54,9.4-2.02c-4.46,10.53-8.43,21.31-11.91,32.25c3.81,14.76,19.94,20.19,30.88,28.45
		c-0.89-11.02-1.87-21.96-2.76-32.98c5.51-6.89,11.11-13.78,16.7-20.59c-21.102-21.424-46.326-38.241-65.09-61.76
		c-41.25-67.6-70.67-141.43-103.09-213.491c-13.38-28.61-17.83-60.22-24.8-90.78c-9.16-45.79-24.48-90.61-26.02-137.7
		c-1.46-49.52-9.4-99.61-26.75-146.05C821.486,642.357,775.696,627.367,731.926,611.397z M433.905,1568.69
		c27.47-4.13,55.52-12.48,76.75-31.12C484.235,1545.43,458.055,1555.15,433.905,1568.69z M266.775,1244.239
		c44.09,3.49,85.67,18.64,127.98,30.24c9.08-59.9,27.39-118.01,49.85-174.101c-12.32-51.39-20.43-103.75-30.24-155.62
		c-15.96,31.04-15.4,67.19-27.88,99.45C366.545,1121.129,309.655,1179.649,266.775,1244.239z M158.164,1356.499
		c-12.07,20.18-20.18,42.39-29.5,63.95c14.35-6,28.37-13.13,43.69-16.38c8.99-15.56,17.1-31.52,23.5-48.3
		c-24.72-0.24-21.56,32.99-35.26,47.58C159.144,1389.159,181.104,1360.629,158.164,1356.499z M82.714,1565.85
		c20.01,28.86,61.27,18.81,90.69,14.67l-2.51,10.13c34.04,0.17,67.92,5.76,101.96,4.87c121.82-14.75,227.181-89.73,349.491-101.97
		c-51.22-24.47-91.26-65.48-139.25-94.82c-87.61-25.37-178.791,2.27-258.711,39.22c51.06-42.3,117.93-56.33,182.121-63.86
		c-56.57-39.39-131.71-33.96-196.061-21.24c-8.27,24.72-19.69,49.04-38.01,68.08c-24.48,4.87-49.12,8.84-73.43,14.51
		c-12.49-4.94-24.4-11.26-36.56-17.02c-12.07,15.08-25.12,29.58-35.09,46.28C36.024,1502.71,59.854,1535.05,82.714,1565.85z
		 M84.084,1295.789c6.81,22.05,7.38,45.23,6.16,68.08c23.67-7.94,28.86-31.61,33.64-53.08c0,5.18,0.16,15.48,0.16,20.66
		c11.51-0.64,22.86-2.18,34.12-4.54c9.32-10.37,16.86-22.12,25.7-32.9c-5.03,13.05-11.11,25.61-17.43,38.09
		c-14.26,2.35-28.53,4.54-42.79,6.57c0.99,0.67,2.2,1.49,3.54,2.38l-2.25,0.86c-6,8.02-10.78,16.61-14.34,25.85
		c-10.54-12.88-26.1,5.68-38.66,7.3c11.34-17.35,14.34-37.85,13.61-58.36c-21.15,24.4-50.09,61.76-24.31,92.97
		c24.07,3,45.71-19.37,49.36-41.91c4.94,0.33,14.75,1.06,19.69,1.38c-16.94,13.94-31.45,30.56-47.41,45.63
		c8.43,3.73,16.77,12.4,26.74,8.43c21.4-17.1,33.4-43.6,34.37-70.75c18.64,1.13,38.17,2.18,54.14-9.33
		c-1.62-7.61-3.24-15.31-4.78-22.93c60.38-88.19,128.55-171.421,182.361-264.151c17.27-103.98,41.42-208.301,82.92-305.641
		c13.29-39.06,20.02-79.91,28.12-120.28c-93.082,31.684-112.651,27.476-118.01,47.82c-17.59,44.58-15.88,93.54-25.45,139.9
		c-12.64,56.08-20.26,113.14-31.69,169.471c-10.45,40.85-38.66,73.35-58.76,109.42c-24.15,47.82-45.63,97.67-76.84,141.431
		C148.524,1261.589,114.964,1277.229,84.084,1295.789z M666.766,1557.83c-32.59-11.92-66.3-21.8-95.89-40.37
		c-40.2,27.56-82.91,55.12-131.62,63.71c-71.98,5.19-141.84,31.29-214.791,26.26c-39.14-3-78.78-3.32-117.36-11.59
		c-27.96-5.51-42.87-31.93-58.27-53.09c-17.11-23.34-28.05-50.33-36.56-77.73c10.62-16.77,22.62-32.58,36.31-47
		c-4.29-16.13-13.86-32.91-9.89-50.01c11.03-25.21,33.56-45.88,32.51-75.38c31.69-18.88,62.32-39.63,94.66-57.46
		c20.43-36.64,43.53-71.98,58.12-111.45c15.56-40.85,45.47-73.19,70.51-108.04c11.51-86.72,34.12-171.991,41.42-259.441
		c3.73-30.15,8.99-60.95,24.15-87.78c8.11-17.34,29.5-20.1,45.63-26.1c53.98-13.94,104.48-37.85,157.32-55.27
		c0.73-11.68,1.62-23.43,2.51-35.1c-24.56,4.05-48.95,9.81-73.83,11.27c-10.46-0.49-13.7-12.49-19.78-19.05
		c-18.72-0.73-38.66,0.32-55.03-10.29c6.08-27.4,13.69-54.47,18.4-82.11c17.1-100.5,2.67-204.161,26.98-303.691
		c18.24-50.17,53.26-105.29,110.64-113.39c43.12-4.79,85.43-18.97,129.03-16.94c27.4,8.26,52.77,26.58,65.81,52.6
		c18.24,33.8,31.53,70.11,44.1,106.34c12.32,77.97-1.22,157.32,7.61,235.531c4.79,32.99,22.54,62.41,28.7,94.91
		c-9.97,14.18-28.78,14.43-43.69,19.61c8.43,5.68,16.94,11.35,25.37,17.11c-41.5,25.93-93.53,7.21-138.35,0.72
		c1.7,13.7,3.72,27.32,5.91,41.02c54.23,19.69,111.12,35.25,159.271,68.32c16.53,10.78,21.88,31.29,27.23,49.04
		c20.26,67.19,12,139,32.34,206.191c14.34,46.44,12.48,97.67,37.12,140.7c29.99,65.17,57.87,131.39,91.26,195.011
		c19.86,33.72,73.19,46.2,73.43,90.54c2.03,10.77,7.14,20.74,9.49,31.44c-5.59,26.1-19.29,52.85-48.47,56.66
		c17.83,23.99,39.8,47.09,44.09,77.97c-18.64,31.69-29.58,67.67-51.55,97.34c-15.4,22.61-45.95,16.21-69.3,18.72
		c-40.44-1.62-81.86,4.05-121.33-7.29c-27.31-5.84-53.25-18.08-81.29-20.02C753.646,1588.38,710.126,1571.85,666.766,1557.83z
		 M644.636,1533.35c30.72,9.89,60.22,25.37,93.04,26.83c1.54,2.67,4.79,7.94,6.41,10.62c-1.7-6.49-5.03-19.29-6.73-25.78
		c67.19,34.21,141.11,57.87,216.571,62.09c-16.13-12.57-33.8-23.02-49.61-35.99c19.62,7.86,38.1,18.24,57.96,25.53
		c31.12,9.57,64.03,5.76,96.04,4.38c18.48-34.12,36.15-68.81,51.79-104.31c-6.08-24.16-25.53-41.83-38.66-62.33
		c-16.29-3.33-32.42-0.81-46.6,7.7c-7.3-4.22-14.43-8.51-21.64-12.81c-38.18,6.08-35.5-41.42-47.99-64.68
		c-39.95,2.35-79.99,6.24-119.79,10.05c33.64,22.62,75.86,27.64,109.01,51.63c9.49,8.35,26.99,9.81,30.88,23.1
		c-33.23-20.75-70.75-32.58-106.9-46.76c-54.87-23.27-116.07-14.03-173.291-26.1c-44.98-9.57-90.13-20.91-131.7-40.93
		c-29.18-12.81-44.5-42.64-65.49-64.76c-7.38-8.27-20.02-12.24-30.64-8.59c-25.04,5.83-48.87,15.64-73.19,23.74
		c-44.66-11.26-88.83-24.39-134.3-31.93c-16.21,29.58-57.38,50.33-49.85,88.26c58.28-20.34,123.69-14.58,176.531,17.59
		c28.29,21.56,66.06,16.05,96.21,33.31c36.72,16.05,60.22,51.55,97.5,66.71c51.63,23.67,97.99,57.87,150.68,79.02
		c-4.46,3.33-8.92,6.73-13.38,10.05c-26.91-14.02-51.3-32.58-78.53-45.95c-15.57,0-30.89,3.48-46.12,6.24
		C607.106,1522.73,626.966,1526.38,644.636,1533.35z M653.466,1319.859c-16.53-0.97-27.47,13.3-38.98,22.86
		c52.03,16.7,105.77,32.01,160.961,29.99c54.39-3,108.69-7.94,163.001-12.48c6.72-16.29-14.75-21.97-24.08-29.83
		c-28.61,8.02-54.46-9.64-82.26-12.32c-28.21,4.62-53.49,19.29-80.73,27.23C719.116,1335.669,687.756,1319.539,653.466,1319.859z
		 M652.736,146.975c-6.726-18.965,26.935-21.803,40.53-26.18c25.85,10.46,42.06,35.1,54.38,58.93
		c21.24,64.51,6.08,133.16,19.21,198.891c3.33,39.23,22.21,79.43,56.58,100.51c-7.46-23.91-18.16-47.01-21.56-71.98
		c-5.19-71.97,3.72-144.51-4.46-216.241c-14.83-47.66-47.66-94.99-94.59-115.09c-23.91,7.37-47.09,18.72-66.46,34.69
		c-0.16,4.62-0.4,13.78-0.48,18.32c-16.86-22.37-37.61-42.88-63.63-54.15c-46.52,9.89-76.51,52.69-98.56,91.67
		c-9.64,37.85-9.24,78.22-0.97,116.47c13.78,60.47,6.73,122.96,0.89,183.991c27.96-29.83,50.98-70.11,43.93-112.34
		c-6.4-69.95-20.59-148.57,24.24-209.521c21.39-23.5,55.11-13.69,82.67-10.45l6.97,8.27c-27.32-3.89-62.09-14.59-84.13,7.78
		c-16.13,11.51-20.18,31.44-25.86,49.19c24.97,0.49,48.31,9.97,68.73,23.75c-22.85-5.27-45.39-12.64-69.05-13.29
		c-1.62,14.27-3.16,28.61-4.62,42.96c0.17-0.02,0.35-0.04,0.52-0.06c1.346,54.523,1.031,37.181,0.75,46.31
		c-2.023,38.944,19.879,86.625-6.62,123.06c31.77,37.77,72.86,69.46,118.41,88.51c41.58-14.43,76.6-43.2,106.75-74.49
		c16.53-15.07,13.29-39.63,17.83-59.57c5.59-58.27,6-118.01-6.73-175.391c-5.59-32.34-28.37-64.03-60.87-73.11
		C673.896,131.735,663.436,139.925,652.736,146.975z M596.656,1336.639c19.85-13.45,38.82-34.69,64.92-32.58
		c31.2,1.86,59.89,15.56,88.51,26.99c17.91-6.32,35.66-13.13,53.33-20.02c-16.29-41.82-26.43-85.67-38.5-128.79
		c-20.18-80.73-1.62-163.721,6.89-244.771c3.16-32.42,12.8-63.71,17.42-95.89c-3-22.93-17.5-42.47-23.91-64.59
		c-21.23-55.68-22.04-117.04-44.82-172.071c-12.07,19.53-25.2,44.09-50.65,47.33c-48.31,8.75-108.37,4.38-137.87-40.69
		c-12.81,4.87-25.53,9.73-38.26,14.51c-9.24,43.61-14.67,88.35-32.42,129.6c-14.26,32.58-23.83,66.95-29.99,101.96
		c-23.83,83.97,21.64,166.801,20.91,250.931c-14.58,53.58-36.31,105.45-44.09,160.811c24.4-8.92,48.63-19.86,74.89-21.48
		c38.26,8.43,47.01,54.63,75.62,75.86C570.876,1329.179,583.846,1332.749,596.656,1336.639z M681.436,498.497
		c-17.27,9.48-32.42,25.2-52.61,28.04c-20.91-9-39.22-22.94-59.49-33.39c9.4,35.17,9.57,71.97,2.52,107.55
		c-11.11,2.84-22.13,5.76-33.15,9c29.58,41.74,85.34,45.31,131.54,37.61c16.53-5.27,25.53-21.56,37.04-33.32
		C671.056,588.787,672.926,536.997,681.436,498.497z"/>
	<path fill="#FFCC99" d="M522.545,351.886c0.19,1.53,0.37,3.05,0.54,4.57C522.915,354.936,522.735,353.416,522.545,351.886z"/>
	<path d="M129.154,1363.229l-4.22-21.32l2.25-0.86c4.78,3.18,11.14,7.36,14.69,9.77
		C141.173,1351.52,131.479,1361.011,129.154,1363.229z"/>
	<path fill="#FFCC99" d="M518.045,294.806c-0.06,0.72-0.11,1.43-0.16,2.15C517.925,296.236,517.975,295.516,518.045,294.806z"/>
	<path fill="#FFCC99" d="M519.255,326.956c0.54,4.48,1.15,8.98,1.77,13.47C520.405,335.936,519.785,331.436,519.255,326.956z"/>
	<path fill="#FFCC99" d="M517.695,301.726c-0.15,8.11,0.53,16.37,1.5,24.69C518.215,318.096,517.535,309.836,517.695,301.726z"/>
	<path fill="#FFCC99" d="M747.406,201.526c-5.59-32.34-28.37-64.03-60.87-73.11c-12.64,3.32-23.1,11.51-33.8,18.56
		c-7.62,1.78-14.99,0.16-21.31-4.21c-27.32-3.89-62.09-14.59-84.13,7.78c-16.13,11.51-20.18,31.44-25.86,49.19
		c24.97,0.49,48.31,9.97,68.73,23.75c-22.85-5.27-45.39-12.64-69.05-13.29c-1.62,14.27-3.16,28.61-4.62,42.96
		c0.17-0.02,0.35-0.04,0.52-0.06c1.349,54.616,1.027,37.438,0.75,46.31c-1.587,41.229,19.613,86.984-6.62,123.06
		c31.77,37.77,72.86,69.46,118.41,88.51c41.58-14.43,76.6-43.2,106.75-74.49c16.53-15.07,13.29-39.63,17.83-59.57
		C759.726,318.646,760.136,258.906,747.406,201.526z M598.026,436.566c22.62-1.54,45.31-1.94,68.01-1.29
		C646.496,449.946,615.056,460.566,598.026,436.566z M596.406,418.736c-14.99-1.13-34.52,1.62-43.2-13.78
		c46.2,7.62,94.35,5.44,139.98-5.02c0.65,2.84,2.02,8.51,2.67,11.35C662.706,414.036,629.556,416.306,596.406,418.736z
		 M653.796,231.756c14.75-28.85,53.98-39.15,83.16-28.04C705.986,201.766,679.566,216.846,653.796,231.756z"/>
	<path fill="none" stroke="#000000" stroke-width="0.5" d="M1127.537,1366.869c-2.35-10.7-7.46-20.67-9.49-31.44
		c-0.24-44.34-53.57-56.82-73.43-90.54c-33.39-63.62-61.27-129.84-91.26-195.011c-24.64-43.03-22.78-94.26-37.12-140.7
		c-20.34-67.19-12.08-139-32.34-206.191c-5.35-17.75-10.7-38.26-27.23-49.04c-48.15-33.07-105.04-48.63-159.271-68.32
		c-2.19-13.7-4.21-27.32-5.91-41.02c44.82,6.49,96.85,25.21,138.35-0.72c-8.43-5.76-16.94-11.43-25.37-17.11
		c14.91-5.18,33.72-5.43,43.69-19.61c-6.16-32.5-23.91-61.92-28.7-94.91c-8.83-78.21,4.71-157.561-7.61-235.531
		c-12.57-36.23-25.86-72.54-44.1-106.34c-13.04-26.02-38.41-44.34-65.81-52.6c-43.6-2.03-85.91,12.15-129.03,16.94
		c-57.38,8.1-92.4,63.22-110.64,113.39c-24.31,99.53-9.88,203.191-26.98,303.691c-4.71,27.64-12.32,54.71-18.4,82.11
		c16.37,10.61,36.31,9.56,55.03,10.29c6.08,6.56,9.32,18.56,19.78,19.05c24.88-1.46,49.27-7.22,73.83-11.27
		c-0.89,11.67-1.78,23.42-2.51,35.1c-52.84,17.42-103.34,41.33-157.32,55.27c-16.13,6-37.52,8.76-45.63,26.1
		c-15.16,26.83-20.42,57.63-24.15,87.78c-7.3,87.45-29.91,172.721-41.42,259.441c-25.04,34.85-54.95,67.19-70.51,108.04
		c-14.59,39.47-37.69,74.81-58.12,111.45c-32.34,17.83-62.97,38.58-94.66,57.46c1.05,29.5-21.48,50.17-32.51,75.38
		c-3.97,17.1,5.6,33.88,9.89,50.01c-13.69,14.42-25.69,30.23-36.31,47c8.51,27.4,19.45,54.39,36.56,77.73
		c15.4,21.16,30.31,47.58,58.27,53.09c38.58,8.27,78.22,8.59,117.36,11.59c72.95,5.03,142.81-21.07,214.791-26.26
		c48.71-8.59,91.42-36.15,131.62-63.71c29.59,18.57,63.3,28.45,95.89,40.37c43.36,14.02,86.88,30.55,132.92,32.42
		c28.04,1.94,53.98,14.18,81.29,20.02c39.47,11.34,80.89,5.67,121.33,7.29c23.35-2.51,53.9,3.89,69.3-18.72
		c21.97-29.67,32.91-65.65,51.55-97.34c-4.29-30.88-26.26-53.98-44.09-77.97C1108.247,1419.719,1121.947,1392.969,1127.537,1366.869
		z"/>
	<path fill="none" stroke="#000000" stroke-width="0.5" d="M1060.907,1427.819c-13.86-13.29-29.34-26.01-37.52-43.76
		c-1.54-15.32-0.57-30.8,0.16-46.12c23.02,8.35,6.97,41.66,26.99,53.25c9.48,6.97,19.61,12.97,29.42,19.37
		C1073.637,1416.309,1067.317,1422.069,1060.907,1427.819z"/>
	<path fill="none" stroke="#000000" stroke-width="0.5" d="M913.807,1318.889c-35.42,3.73-66.71-21.56-102.21-12.24
		c-15.56-79.51-55.76-157.151-41.98-240.071c8.67-57.38,11.02-115.9,23.67-172.561c13.29,51.71,22.04,104.48,33.47,156.671
		c41.01,95.4,110.88,173.941,164.371,262.121c-19.94,9.24-28.04,27.15-28.61,48.31
		C949.307,1344.749,938.687,1318.569,913.807,1318.889z"/>
	<path fill="none" stroke="#000000" stroke-width="0.5" d="M938.447,1360.229c-54.31,4.54-108.61,9.48-163.001,12.48
		c-55.19,2.02-108.93-13.29-160.961-29.99c11.51-9.56,22.45-23.83,38.98-22.86c34.29-0.32,65.65,15.81,97.91,25.45
		c27.24-7.94,52.52-22.61,80.73-27.23c27.8,2.68,53.65,20.34,82.26,12.32C923.697,1338.259,945.167,1343.939,938.447,1360.229z"/>
	<path fill="none" stroke="#000000" stroke-width="0.5" d="M1004.577,1418.26c-26.01,2.75-27.72-27.15-35.25-44.66
		C995.337,1348.879,999.797,1401.159,1004.577,1418.26z"/>
	<path fill="none" stroke="#000000" stroke-width="0.5" d="M1003.847,1351.309c15.49,2.76,9.65,21.8,13.62,32.91
		c0.73,19.77,39.39,33.47,9.08,47.74C1003.937,1413.229,997.937,1378.459,1003.847,1351.309z"/>
	<path fill="none" stroke="#000000" stroke-width="0.5" d="M1095.437,1410.479c-26.26-14.19-59.25-29.59-54.55-66.06
		c17.84,13.21,33.72,32.58,57.63,34.37c-0.81-14.27-1.38-28.53-1.62-42.8C1127.537,1354.719,1109.867,1387.859,1095.437,1410.479z"
		/>
	<path fill="none" stroke="#000000" stroke-width="0.5" d="M1041.537,1275.119c-18.72,14.75-26.34,38.58-16.45,60.79
		c-14.59,5.11-30.72,9-39.47,23.1c-1.62-4.7-4.86-14.02-6.4-18.72c16.37-9.48,25.45-25.86,32.25-42.88
		c-3.64,1.46-10.86,4.54-14.5,6.08c-43.77-79.75-104.72-148.891-145.57-230.431c-25.78-84.29-39.23-171.501-57.55-257.411
		c-13.13-5.11-16.86-19.37-20.67-31.53c-16.61-56.82-29.17-114.77-41.25-172.721c43.77,15.97,89.56,30.96,127.49,58.36
		c17.35,46.44,25.29,96.53,26.75,146.05c1.54,47.09,16.86,91.91,26.02,137.7c6.97,30.56,11.42,62.17,24.8,90.78
		c32.42,72.06,61.84,145.89,103.09,213.491c18.765,23.52,43.986,40.335,65.09,61.76c-5.59,6.81-11.19,13.7-16.7,20.59
		c0.89,11.02,1.87,21.96,2.76,32.98c-10.94-8.26-27.07-13.69-30.88-28.45c3.48-10.94,7.45-21.72,11.91-32.25
		c-2.35,0.48-7.05,1.54-9.4,2.02c-3.73,10.54-7.62,21.08-11.51,31.53c-10.54-9.56-25.53-18.64-23.5-35.17
		C1031.737,1298.629,1037.247,1287.119,1041.537,1275.119z"/>
	<path fill="none" stroke="#000000" stroke-width="0.5" d="M631.426,142.765l-6.97-8.27c-27.56-3.24-61.28-13.05-82.67,10.45
		c-44.83,60.95-30.64,139.57-24.24,209.521c7.05,42.23-15.97,82.51-43.93,112.34c5.84-61.03,12.89-123.52-0.89-183.991
		c-8.27-38.25-8.67-78.62,0.97-116.47c22.05-38.98,52.04-81.78,98.56-91.67c26.02,11.27,46.77,31.78,63.63,54.15
		c0.08-4.54,0.32-13.7,0.48-18.32c19.37-15.97,42.55-27.32,66.46-34.69c46.93,20.1,79.76,67.43,94.59,115.09
		c8.18,71.73-0.73,144.27,4.46,216.241c3.4,24.97,14.1,48.07,21.56,71.98c-34.37-21.08-53.25-61.28-56.58-100.51
		c-13.13-65.73,2.03-134.38-19.21-198.891c-12.32-23.83-28.53-48.47-54.38-58.93c-13.595,4.377-47.256,7.215-40.53,26.18"/>
	<line fill="none" stroke="#000000" stroke-width="0.5" x1="518.045" y1="294.806" x2="517.015" y2="253.096"/>
	<path fill="none" stroke="#000000" stroke-width="0.5" d="M512.075,421.136c0.31-0.44,0.6-0.88,0.9-1.33"/>
	<path fill="none" stroke="#000000" stroke-width="0.5" d="M571.856,600.697c7.05-35.58,6.88-72.38-2.52-107.55
		c20.27,10.45,38.58,24.39,59.49,33.39c20.19-2.84,35.34-18.56,52.61-28.04c-8.51,38.5-10.38,90.29,25.85,115.49
		c-11.51,11.76-20.51,28.05-37.04,33.32c-46.2,7.7-101.96,4.13-131.54-37.61C549.725,606.457,560.745,603.537,571.856,600.697z"/>
	<path fill="none" stroke="#000000" stroke-width="0.5" d="M531.975,611.557c29.5,45.07,89.56,49.44,137.87,40.69
		c25.45-3.24,38.58-27.8,50.65-47.33c22.78,55.03,23.59,116.39,44.82,172.071c6.41,22.12,20.91,41.66,23.91,64.59
		c-4.62,32.18-14.26,63.47-17.42,95.89c-8.51,81.05-27.07,164.04-6.89,244.771c12.07,43.12,22.21,86.97,38.5,128.79
		c-17.67,6.89-35.42,13.7-53.33,20.02c-28.62-11.43-57.31-25.13-88.51-26.99c-26.1-2.11-45.07,19.13-64.92,32.58
		c-12.81-3.89-25.78-7.46-38.02-12.89c-28.61-21.23-37.36-67.43-75.62-75.86c-26.26,1.62-50.49,12.56-74.89,21.48
		c7.78-55.36,29.51-107.23,44.09-160.811c0.73-84.13-44.74-166.961-20.91-250.931c6.16-35.01,15.73-69.38,29.99-101.96
		c17.75-41.25,23.18-85.99,32.42-129.6C506.445,621.287,519.165,616.427,531.975,611.557z"/>
	<path fill="none" stroke="#000000" stroke-width="0.5" d="M394.755,1274.479c-42.31-11.6-83.89-26.75-127.98-30.24
		c42.88-64.59,99.77-123.11,119.71-200.031c12.48-32.26,11.92-68.41,27.88-99.45c9.81,51.87,17.92,104.23,30.24,155.62
		C422.145,1156.469,403.835,1214.579,394.755,1274.479z"/>
	<path fill="none" stroke="#000000" stroke-width="0.5" d="M110.594,1367.759c3.56-9.24,8.34-17.83,14.34-25.85l4.22,21.32
		c2.325-2.218,12.019-11.709,12.72-12.41c-4.744-3.22-12.476-8.256-18.23-12.15c14.26-2.03,28.53-4.22,42.79-6.57
		c6.32-12.48,12.4-25.04,17.43-38.09c-8.84,10.78-16.38,22.53-25.7,32.9c-11.26,2.36-22.61,3.9-34.12,4.54
		c0-5.18-0.16-15.48-0.16-20.66c-4.78,21.47-9.97,45.14-33.64,53.08c1.22-22.85,0.65-46.03-6.16-68.08
		c30.88-18.56,64.44-34.2,91.91-57.63c31.21-43.76,52.69-93.61,76.84-141.431c20.1-36.07,48.31-68.57,58.76-109.42
		c11.43-56.33,19.05-113.39,31.69-169.471c9.57-46.36,7.86-95.32,25.45-139.9c5.359-20.345,24.929-16.136,118.01-47.82
		c-8.1,40.37-14.83,81.22-28.12,120.28c-41.5,97.34-65.65,201.661-82.92,305.641c-53.81,92.73-121.98,175.961-182.361,264.151
		c1.54,7.62,3.16,15.32,4.78,22.93c-15.97,11.51-35.5,10.46-54.14,9.33c-0.97,27.15-12.97,53.65-34.37,70.75
		c-9.97,3.97-18.31-4.7-26.74-8.43c15.96-15.07,30.47-31.69,47.41-45.63C125.344,1368.819,115.534,1368.089,110.594,1367.759"/>
	<path fill="none" stroke="#000000" stroke-width="0.5" d="M110.594,1367.759c-3.65,22.54-25.29,44.91-49.36,41.91
		c-25.78-31.21,3.16-68.57,24.31-92.97c0.73,20.51-2.27,41.01-13.61,58.36C84.494,1373.439,100.054,1354.879,110.594,1367.759z"/>
	<path fill="none" stroke="#000000" stroke-width="0.5" d="M160.594,1403.349c13.7-14.59,10.54-47.82,35.26-47.58
		c-6.4,16.78-14.51,32.74-23.5,48.3c-15.32,3.25-29.34,10.38-43.69,16.38c9.32-21.56,17.43-43.77,29.5-63.95
		C181.104,1360.629,159.144,1389.159,160.594,1403.349z"/>
	<path fill="none" stroke="#000000" stroke-width="0.5" d="M433.905,1568.69c24.15-13.54,50.33-23.26,76.75-31.12
		C489.425,1556.21,461.375,1564.56,433.905,1568.69z"/>
	<path fill="none" stroke="#000000" stroke-width="0.5" d="M272.855,1595.52c-34.04,0.89-67.92-4.7-101.96-4.87l2.51-10.13
		c-29.42,4.14-70.68,14.19-90.69-14.67c-22.86-30.8-46.69-63.14-55.36-101.15c9.97-16.7,23.02-31.2,35.09-46.28
		c12.16,5.76,24.07,12.08,36.56,17.02c24.31-5.67,48.95-9.64,73.43-14.51c18.32-19.04,29.74-43.36,38.01-68.08
		c64.35-12.72,139.49-18.15,196.061,21.24c-64.19,7.53-131.06,21.56-182.121,63.86c79.92-36.95,171.101-64.59,258.711-39.22
		c47.99,29.34,88.03,70.35,139.25,94.82C500.035,1505.79,394.675,1580.77,272.855,1595.52z"/>
	<path fill="none" stroke="#000000" stroke-width="0.5" d="M1110.107,1496.72c-15.64,35.5-33.31,70.19-51.79,104.31
		c-32.01,1.38-64.92,5.19-96.04-4.38c-19.86-7.29-38.34-17.67-57.96-25.53c15.81,12.97,33.48,23.42,49.61,35.99
		c-75.46-4.22-149.38-27.88-216.571-62.09c1.7,6.49,5.03,19.29,6.73,25.78c-1.62-2.68-4.87-7.95-6.41-10.62
		c-32.82-1.46-62.32-16.94-93.04-26.83c-17.67-6.97-37.53-10.62-51.79-24.07c15.23-2.76,30.55-6.24,46.12-6.24
		c27.23,13.37,51.62,31.93,78.53,45.95c4.46-3.32,8.92-6.72,13.38-10.05c-52.69-21.15-99.05-55.35-150.68-79.02
		c-37.28-15.16-60.78-50.66-97.5-66.71c-30.15-17.26-67.92-11.75-96.21-33.31c-52.84-32.17-118.25-37.93-176.531-17.59
		c-7.53-37.93,33.64-58.68,49.85-88.26c45.47,7.54,89.64,20.67,134.3,31.93c24.32-8.1,48.15-17.91,73.19-23.74
		c10.62-3.65,23.26,0.32,30.64,8.59c20.99,22.12,36.31,51.95,65.49,64.76c41.57,20.02,86.72,31.36,131.7,40.93
		c57.22,12.07,118.42,2.83,173.291,26.1c36.15,14.18,73.67,26.01,106.9,46.76c-3.89-13.29-21.39-14.75-30.88-23.1
		c-33.15-23.99-75.37-29.01-109.01-51.63c39.8-3.81,79.84-7.7,119.79-10.05c12.49,23.26,9.81,70.76,47.99,64.68
		c7.21,4.3,14.34,8.59,21.64,12.81c14.18-8.51,30.31-11.03,46.6-7.7C1084.577,1454.89,1104.027,1472.56,1110.107,1496.72z"/>
	<path fill="none" stroke="#FFCC99" stroke-width="0.5" d="M653.796,231.756c25.77-14.91,52.19-29.99,83.16-28.04
		C707.776,192.606,668.546,202.906,653.796,231.756z"/>
	<path fill="none" stroke="#FFCC99" stroke-width="0.5" d="M553.206,404.956c8.68,15.4,28.21,12.65,43.2,13.78
		c33.15-2.43,66.3-4.7,99.45-7.45c-0.65-2.84-2.02-8.51-2.67-11.35C647.556,410.396,599.406,412.576,553.206,404.956z"/>
	<path fill="none" stroke="#FFCC99" stroke-width="0.5" d="M598.026,436.566c17.03,24,48.47,13.38,68.01-1.29
		C643.336,434.626,620.646,435.026,598.026,436.566z"/>
	<path stroke="#000000" stroke-width="0.5" d="M653.793,231.755c14.751-28.854,53.98-39.148,83.158-28.044
		C705.99,201.767,679.567,216.842,653.793,231.755z"/>
	<g>
		<path fill="#FFFFFF" d="M593.251,290.536c-17.643-22.88-46.338-35.102-75.099-31.667l1.026,41.711
			c0.025-0.295,0.046-0.591,0.073-0.886c17.183,8.348,34.203,30.07,55.358,20.263C586.848,316.797,602.167,304.315,593.251,290.536z
			"/>
		<path d="M518.596,301.044l0.191-0.394l-1.108-0.033l-1.06-43.076c31.944-3.809,60.411,9.503,77.82,32.078
			c9.227,12.905-3.914,27.7-19.322,31.756C553.026,331.507,535.788,309.397,518.596,301.044z M520.632,298.706
			c16.935,8.574,33.437,29.121,53.346,19.891l0.256-0.091c10.905-2.817,26.071-14.215,17.791-27.104
			c-17.103-22.142-44.709-34.008-72.339-31.193L520.632,298.706z"/>
	</g>
	<g>
		<path fill="#FFFFFF" d="M736.225,246.931c-32.435-2.208-72.915,16.158-75.762,52.426c-1.015,12.935-1.821,12.174,13.643,15.515
			c11.059,2.389,24.732,3.34,34.861-2.291c9.517-5.29,17.679-13.498,22.514-23.293c3.031-6.14,4.347-13.239,4.963-20.002
			C736.62,267.351,737.418,247.012,736.225,246.931z"/>
		<path d="M673.789,316.338c-16.372-3.545-15.886-3.484-14.821-17.099c2.835-36.123,42.724-56.162,77.358-53.805
			c0.345,0,0.818,0.203,1.142,0.584c1.733,2.032,0.488,23.198,0.47,23.404c-0.764,8.394-2.436,15.108-5.111,20.529
			c-4.861,9.85-13.076,18.352-23.131,23.94C699.352,319.642,685.405,318.847,673.789,316.338z M661.958,299.474
			c-0.924,12.017-2.205,10.776,12.465,13.932c9.847,2.128,23.706,3.483,33.815-2.136c9.526-5.295,17.304-13.337,21.898-22.646
			c2.509-5.083,4.083-11.454,4.813-19.473c0.211-2.305,0.705-17.083,0.212-20.783C701.839,246.504,664.638,265.34,661.958,299.474z
			 M736.119,248.427c0.002,0,0.003,0,0.005,0C736.122,248.428,736.121,248.428,736.119,248.427z"/>
	</g>
	<path stroke="#000000" stroke-width="0.5" d="M553.209,404.961c46.199,7.619,94.343,5.43,139.975-5.025
		c0.648,2.837,2.026,8.51,2.675,11.347c-33.15,2.756-66.3,5.025-99.449,7.457C581.415,417.605,561.881,420.361,553.209,404.961z"/>
	<path stroke="#000000" stroke-width="0.5" d="M598.03,436.571c22.613-1.54,45.307-1.945,68.002-1.297
		C646.499,449.944,615.051,460.562,598.03,436.571z"/>
	<path fill="#FFCC99" stroke="#FFCC99" stroke-width="0.5" d="M569.338,493.144c20.263,10.456,38.58,24.396,59.491,33.393
		c20.182-2.837,35.338-18.561,52.602-28.044c-8.51,38.499-10.374,90.291,25.855,115.497c-11.509,11.752-20.506,28.044-37.04,33.312
		c-46.199,7.7-101.962,4.134-131.545-37.608c11.023-3.242,22.046-6.16,33.15-8.997C578.902,565.117,578.74,528.32,569.338,493.144z"
		/>
	<path fill="#9933CC" stroke="#9933CC" stroke-width="0.5" d="M493.718,626.068c12.725-4.782,25.45-9.645,38.256-14.508
		c29.503,45.064,89.561,49.441,137.867,40.688c25.45-3.242,38.58-27.8,50.657-47.334c22.775,55.034,23.586,116.389,44.821,172.071
		c6.403,22.127,20.911,41.66,23.91,64.597c-4.62,32.177-14.265,63.463-17.426,95.883c-8.51,81.051-27.071,164.047-6.889,244.773
		c12.077,43.119,22.208,86.968,38.499,128.79c-17.669,6.889-35.419,13.698-53.331,20.02c-28.611-11.428-57.303-25.126-88.508-26.99
		c-26.098-2.107-45.064,19.128-64.922,32.582c-12.806-3.89-25.774-7.457-38.013-12.887c-28.611-21.235-37.364-67.434-75.62-75.864
		c-26.26,1.621-50.495,12.563-74.891,21.479c7.781-55.358,29.502-107.23,44.092-160.805c0.729-84.131-44.74-166.965-20.911-250.933
		c6.16-35.014,15.724-69.379,29.989-101.962C479.048,714.413,484.478,669.673,493.718,626.068z"/>
	<path fill="#FFCC99" stroke="#FFCC99" stroke-width="0.5" d="M731.926,611.397c43.767,15.967,89.561,30.961,127.493,58.357
		c17.345,46.442,25.288,96.532,26.747,146.054c1.54,47.09,16.859,91.912,26.017,137.705c6.97,30.556,11.428,62.166,24.802,90.777
		c32.42,72.054,61.842,145.891,103.097,213.488c18.642,23.424,44.092,40.444,65.084,61.761
		c-5.593,6.808-11.185,13.698-16.696,20.587c0.891,11.023,1.864,21.965,2.756,32.988c-10.942-8.267-27.071-13.698-30.88-28.449
		c3.485-10.942,7.457-21.722,11.914-32.258c-2.35,0.486-7.051,1.54-9.402,2.026c-3.728,10.536-7.619,21.073-11.509,31.529
		c-10.537-9.564-25.531-18.642-23.505-35.176c3.89-12.158,9.402-23.667,13.698-35.662c-18.723,14.751-26.342,38.58-16.453,60.788
		c-14.589,5.106-30.718,8.997-39.472,23.099c-1.621-4.701-4.863-14.022-6.403-18.723c16.372-9.483,25.45-25.855,32.258-42.876
		c-3.647,1.459-10.861,4.539-14.508,6.079c-43.768-79.754-104.718-148.89-145.567-230.428
		c-25.774-84.293-39.229-171.503-57.546-257.417c-13.13-5.106-16.859-19.371-20.668-31.529
		C756.566,727.3,744.003,669.349,731.926,611.397z"/>
	<path fill="#FFCC99" stroke="#FFCC99" stroke-width="0.5" d="M486.747,630.12c-8.105,40.363-14.832,81.213-28.125,120.279
		c-41.498,97.342-65.651,201.654-82.915,305.643c-53.818,92.722-121.981,175.961-182.364,264.145
		c1.54,7.619,3.161,15.319,4.782,22.937c-15.967,11.509-35.5,10.456-54.142,9.321c-0.973,27.152-12.968,53.656-34.366,70.757
		c-9.969,3.971-18.317-4.701-26.747-8.429c15.967-15.075,30.475-31.691,47.415-45.632c-4.944-0.324-14.751-1.054-19.695-1.378
		c3.566-9.24,8.348-17.831,14.346-25.855l4.215,21.316c3.242-3.08,9.564-9.321,12.725-12.401
		c-4.539-3.08-13.698-9.078-18.236-12.158c14.265-2.026,28.53-4.215,42.795-6.565c6.322-12.482,12.401-25.045,17.426-38.094
		c-8.835,10.78-16.372,22.532-25.693,32.907c-11.266,2.35-22.613,3.891-34.122,4.539c0-5.187-0.162-15.481-0.162-20.668
		c-4.782,21.479-9.969,45.145-33.636,53.088c1.216-22.856,0.648-46.037-6.16-68.083c30.88-18.561,64.435-34.203,91.912-57.627
		c31.205-43.767,52.683-93.614,76.836-141.434c20.101-36.068,48.306-68.569,58.762-109.419
		c11.428-56.33,19.047-113.39,31.691-169.477c9.564-46.361,7.862-95.316,25.45-139.894
		C374.094,657.607,393.623,661.793,486.747,630.12z"/>
	<path fill="#CCCCFF" stroke="#CCCCFF" stroke-width="0.5" d="M259.805,1254.049c45.469,7.538,89.642,20.668,134.301,31.934
		c24.315-8.105,48.144-17.912,73.189-23.748c10.618-3.647,23.262,0.324,30.637,8.591c20.992,22.127,36.311,51.953,65.489,64.76
		c41.579,20.019,86.724,31.367,131.708,40.931c57.222,12.077,118.415,2.837,173.287,26.098
		c36.149,14.184,73.675,26.017,106.906,46.766c-3.89-13.292-21.397-14.751-30.88-23.099c-33.15-23.991-75.377-29.016-109.013-51.629
		c39.796-3.809,79.835-7.7,119.793-10.05c12.482,23.262,9.807,70.757,47.982,64.679c7.214,4.296,14.346,8.591,21.641,12.806
		c14.184-8.51,30.313-11.023,46.604-7.7c13.13,20.506,32.583,38.175,38.661,62.328c-15.643,35.5-33.312,70.19-51.791,104.313
		c-32.015,1.378-64.922,5.187-96.045-4.377c-19.857-7.295-38.337-17.669-57.951-25.531c15.805,12.968,33.474,23.424,49.603,35.987
		c-75.458-4.215-149.377-27.881-216.568-62.085c1.702,6.484,5.025,19.29,6.727,25.774c-1.621-2.675-4.863-7.943-6.403-10.618
		c-32.826-1.459-62.328-16.94-93.046-26.828c-17.669-6.97-37.526-10.618-51.791-24.072c15.238-2.756,30.556-6.241,46.118-6.241
		c27.233,13.374,51.629,31.934,78.538,45.956c4.458-3.323,8.916-6.727,13.373-10.05c-52.683-21.154-99.044-55.358-150.673-79.025
		c-37.283-15.157-60.788-50.657-97.504-66.705c-30.151-17.264-67.921-11.752-96.207-33.312
		c-52.845-32.177-118.253-37.932-176.529-17.588C202.421,1304.382,243.595,1283.633,259.805,1254.049 M454.246,1319.214
		c9.321-3.566,18.561-7.295,27.719-11.185c16.778,9.159,33.393,18.642,50.9,26.422c-13.454-11.104-28.125-20.668-42.308-30.799
		C477.021,1305.273,462.27,1306.327,454.246,1319.214z"/>
	<path stroke="#000000" stroke-width="0.5" d="M454.246,1319.214c8.024-12.887,22.775-13.941,36.311-15.562
		c14.184,10.131,28.854,19.695,42.308,30.799c-17.507-7.781-34.122-17.264-50.9-26.422
		C472.807,1311.92,463.567,1315.648,454.246,1319.214z"/>
	<path fill="#CCCCFF" stroke="#CCCCFF" stroke-width="0.5" d="M614.483,1342.719c11.509-9.564,22.451-23.829,38.985-22.856
		c34.284-0.324,65.651,15.805,97.909,25.45c27.233-7.943,52.521-22.613,80.727-27.233c27.8,2.675,53.656,20.344,82.267,12.32
		c9.321,7.862,30.799,13.536,24.072,29.827c-54.304,4.539-108.608,9.483-162.993,12.482
		C720.255,1374.734,666.518,1359.415,614.483,1342.719z"/>
	<path fill="#FFCC99" stroke="#FFCC99" stroke-width="0.5" d="M61.231,1409.667c-25.774-31.205,3.161-68.569,24.315-92.965
		c0.729,20.506-2.269,41.012-13.617,58.357c12.563-1.621,28.125-20.182,38.661-7.295
		C106.943,1390.296,85.303,1412.666,61.231,1409.667z"/>
	<path fill="#F6D6A0" stroke="#F6D6A0" stroke-width="0.5" d="M1023.547,1337.937c23.018,8.348,6.97,41.66,26.99,53.25
		c9.483,6.97,19.614,12.968,29.421,19.371c-6.322,5.755-12.644,11.509-19.047,17.264c-13.86-13.292-29.34-26.017-37.527-43.767
		C1021.845,1368.736,1022.817,1353.255,1023.547,1337.937z"/>
	<path fill="#F5CE9A" stroke="#F5CE9A" stroke-width="0.5" d="M1096.898,1335.992c30.637,18.723,12.968,51.873-1.459,74.486
		c-26.26-14.184-59.248-29.583-54.547-66.056c17.831,13.211,33.717,32.582,57.627,34.365
		C1097.708,1364.522,1097.141,1350.257,1096.898,1335.992z"/>
	<path fill="#CCCCFF" stroke="#CCCCFF" stroke-width="0.5" d="M210.445,1352.85c64.354-12.725,139.488-18.155,196.062,21.235
		c-64.192,7.538-131.059,21.559-182.121,63.868c79.916-36.959,171.098-64.598,258.714-39.229
		c47.982,29.34,88.021,70.352,139.245,94.829c-122.306,12.239-227.672,87.211-349.491,101.962
		c-34.041,0.892-67.921-4.701-101.962-4.863l2.513-10.131c-29.421,4.134-70.676,14.184-90.696-14.67
		c-22.856-30.799-46.685-63.139-55.358-101.151c9.969-16.696,23.018-31.205,35.095-46.28c12.158,5.755,24.072,12.077,36.554,17.021
		c24.315-5.674,48.955-9.645,73.432-14.508C190.75,1401.886,202.178,1377.571,210.445,1352.85z"/>
	<path fill="#F2D09C" stroke="#F2D09C" stroke-width="0.5" d="M1003.852,1351.31c15.481,2.756,9.645,21.803,13.617,32.907
		c0.729,19.776,39.391,33.474,9.078,47.739C1003.933,1413.233,997.935,1378.462,1003.852,1351.31z"/>
	<path fill="#FFCC99" stroke="#FFCC99" stroke-width="0.5" d="M128.665,1420.447c9.321-21.559,17.426-43.767,29.503-63.949
		c22.937,4.134,0.973,32.664,2.432,46.847c13.698-14.589,10.537-47.82,35.257-47.577c-6.403,16.778-14.508,32.745-23.505,48.306
		C157.033,1407.316,143.011,1414.449,128.665,1420.447z"/>
	<path fill="#EFCB98" stroke="#EFCB98" stroke-width="0.5" d="M969.324,1373.599c26.017-24.72,30.475,27.557,35.257,44.659
		C978.564,1421.014,976.862,1391.106,969.324,1373.599z"/>
	<path fill="#CCCCFF" stroke="#CCCCFF" stroke-width="0.5" d="M433.902,1568.689c24.153-13.536,50.333-23.262,76.755-31.124
		C489.422,1556.207,461.378,1564.555,433.902,1568.689z"/>
	<path stroke="#000000" stroke-width="0.5" d="M516.493,253.153"/>
	<g>
		<path fill="#754C24" d="M666.578,279.358c2.501,12.2,13.297,21.375,26.237,21.375c27.548,0,37.048-36.836,12.987-50.206
			C689.503,255.456,674.624,265.173,666.578,279.358z"/>
		<path d="M692.815,302.234c-12.798,0-24.895-8.762-27.818-23.126c8.819-15.573,23.917-25.051,40.979-30.2
			C732.45,263.636,721.571,302.234,692.815,302.234z M668.166,279.605c2.605,11.408,12.882,19.628,24.648,19.628
			c25.697,0,34.873-34.093,12.806-47.082C688.706,257.402,675.446,267.122,668.166,279.605z"/>
	</g>
	<g>
		<path fill="#754C24" d="M583.257,279.747c-12.664-11.448-28.623-18.75-45.515-20.829c-15.635,16.766-3.785,44.361,19.291,44.361
			C570.64,303.279,581.837,292.977,583.257,279.747z"/>
		<path d="M557.034,304.779c-23.582,0-37.677-28.349-19.867-47.442c18.022,2.215,33.995,9.459,47.664,21.811
			C583.11,295.091,570.557,304.779,557.034,304.779z M538.329,260.506c-14.008,15.96-2.688,41.273,18.705,41.273
			c12.487,0,22.948-9.163,24.64-21.437C569.604,269.646,554.269,262.628,538.329,260.506z"/>
	</g>
	<g id="g5954" transform="matrix(1,0,0,1,-119.17,-100.98)">
		<g id="path3612">
			<path d="M716.847,477.935l-3.228-1.095c-0.474-0.627-1.103-1.953,0.004-3.792l5.141,3.093c0.403-0.733,0.438-2.356-0.826-3.41
				c-1.263-1.052-2.852-0.727-3.528-0.174c1.896-1.551,24.502-28.437,27.729-55.787l5.959,0.703
				C744.727,446.041,720.483,476.95,716.847,477.935z"/>
		</g>
		<g id="path3614">
			<path d="M721.884,487.29c-0.282-0.942-0.803-2.079-1.149-2.54c-0.745-0.03-2.859,0.507-4.432,1.206l-2.438-5.482
				c8.215-3.654,11.867-1.339,13.772,5.117L721.884,487.29z"/>
		</g>
		<g id="path3616">
			<path d="M740.587,490.999l-3.631-4.777c0.814-0.619,5.034-3.724,8.197-4.108c4.289-0.522,11.081,2.294,12.4,2.864l-2.378,5.509
				c-2.667-1.148-7.314-2.66-9.297-2.417C744.871,488.192,742.281,489.711,740.587,490.999z"/>
		</g>
	</g>
</g>
</svg>
